<?xml version="1.0" encoding="utf-8"?>
<!-- Generator: Adobe Illustrator 25.4.2, SVG Export Plug-In . SVG Version: 6.00 Build 0)  -->
<svg version="1.1" id="Layer_1" xmlns="http://www.w3.org/2000/svg" xmlns:xlink="http://www.w3.org/1999/xlink" x="0px" y="0px"
	 viewBox="0 0 500 500" style="enable-background:new 0 0 500 500;" xml:space="preserve">
<style type="text/css">
	.st0{fill:none;stroke:#000000;stroke-width:3;stroke-miterlimit:10;}
</style>
<g>
	<g>
		<path d="M257.05,280.6c-3.9,1.96-7.1,3.38-10.1,5.13c-8.46,4.91-11.23,15.07-6.48,23.32c4.88,8.49,15.44,11.38,23.85,6.55
			c8.77-5.04,11.48-14.32,6.41-23.12c-1.89-3.28-4.33-6.34-6.95-9.09c-17.84-18.67-35.8-37.23-53.72-55.83
			c-1.84-1.91-3.65-3.86-5.84-6.18c6.45-11.18,12.89-22.34,18.35-31.79c18.5,17.7,37.12,35.35,55.53,53.21
			c7.05,6.84,14.08,13.79,20.3,21.36c17.95,21.84,18.13,49.54,0.96,70.77c-17.11,21.17-46.22,27.75-69.88,15.81
			c-37.42-18.89-41.6-71.95-7.57-96.15c5.98-4.25,5.99-4.26,10.97,0.9C240.84,263.73,248.77,272,257.05,280.6z"/>
		<path d="M280.08,239.63c1.2-0.54,2.44-0.97,3.57-1.62c6.61-3.8,7.7-11.26,1.91-16.16c-3.87-3.28-8.52-5.64-13.27-8.71
			c-2.46,4.14-4.63,7.8-6.45,10.87c-13.49-12.98-26.94-25.93-40.51-38.99c8.09-14.01,15.97-27.65,24.06-41.67
			c6.65,3.83,12.96,7.45,19.26,11.08c13.12,7.57,26.53,14.68,39.24,22.88c8.59,5.54,17.1,11.76,24.07,19.16
			c23.71,25.16,4.41,64.4-23.92,71.13c-1.17,0.28-3.08-0.07-3.82-0.89C296.17,257.87,288.28,248.88,280.08,239.63z"/>
		<path d="M157.38,302.71c15.17-26.28,30.12-52.17,44.56-77.19c8.21,7.38,16.25,14.61,24.62,22.13
			c-30.6,20.5-37.13,47.43-24.64,80.78C186.88,319.74,172.29,311.32,157.38,302.71z"/>
	</g>
	<circle class="st0" cx="250" cy="250" r="232.6"/>
</g>
</svg>
